<?xml version="1.0" encoding="UTF-8" standalone="no"?>
<!-- Created with Inkscape (http://www.inkscape.org/) -->

<svg
   width="300"
   height="300"
   viewBox="0 0 79.374997 79.374999"
   version="1.1"
   id="svg5"
   xml:space="preserve"
   xmlns="http://www.w3.org/2000/svg"
   xmlns:svg="http://www.w3.org/2000/svg"><defs
     id="defs2" /><g
     id="layer5"
     transform="translate(-297.51117,-0.6991828)"><g
       id="g1075"
       transform="matrix(0.32620703,0,0,0.32620703,296.30238,2.6503066)"><rect
         style="fill:#ffffff;fill-opacity:1;stroke:#3c3c3c;stroke-width:2.70935;stroke-dasharray:none;stroke-dashoffset:0;stroke-opacity:1"
         id="rect1057"
         width="79.187859"
         height="57.59515"
         x="148.23586"
         y="87.264549"
         ry="26.591993"
         rx="15.698222" /><rect
         style="fill:#ffffff;fill-opacity:1;stroke:#3c3c3c;stroke-width:2.70935;stroke-dasharray:none;stroke-dashoffset:0;stroke-opacity:1"
         id="rect1059"
         width="79.187859"
         height="57.59515"
         x="23.314726"
         y="86.886276"
         ry="26.591993"
         rx="15.698222" /><path
         id="path1061"
         style="opacity:1;fill:#8da0a6;fill-opacity:1;stroke:none;stroke-width:9.04922;stroke-linecap:round;stroke-linejoin:round;stroke-dasharray:none;stroke-dashoffset:0;stroke-opacity:1"
         d="m 226.01181,113.28072 c -2.55207,7.558 -7.49775,13.59295 -9.73039,16.37145 -2.52597,3.14355 -5.19406,6.00515 -6.93317,9.64357 -0.83882,1.75494 -1.39719,3.63857 -1.67322,5.56368 l 1.95157,-0.47413 c 4.95979,-1.20501 7.86573,-2.30131 9.96451,-4.91858 2.09876,-2.6173 3.51377,-2.10366 5.59836,-12.46145 l 0.81281,-4.03862 z" /><path
         id="path1063"
         style="opacity:1;fill:#8da0a6;fill-opacity:1;stroke:none;stroke-width:1.62398;stroke-linecap:round;stroke-linejoin:round;stroke-dasharray:none;stroke-dashoffset:0;stroke-opacity:1"
         d="m 24.733232,121.88077 c 1.509773,12.02583 7.11905,22.19898 14.681447,22.19898 l 5.141018,-0.6687 13.14071,-9.68185 -1.830921,-2.30083 c -11.090201,0.27095 -21.584,-3.89315 -31.132254,-9.5476 z" /><path
         style="opacity:1;fill:#ffffff;fill-opacity:1;stroke:#3c3c3c;stroke-width:3.73352;stroke-linecap:round;stroke-linejoin:round;stroke-dasharray:none;stroke-dashoffset:0;stroke-opacity:1"
         d="M 215.65709,132.80682 C 219.95126,110.03518 212.81085,85.429701 197.10744,68.388857 189.78627,60.444157 180.77475,54.126304 171.00067,49.523566 144.27024,36.93586 112.43741,37.600837 84.664847,47.68304 74.069197,51.529551 63.81103,56.775262 55.580874,64.477728 42.486148,76.732865 35.453249,94.492581 33.596122,112.33106 c -1.465681,14.07847 0.151737,28.71665 6.412029,41.41155 4.998675,10.13653 12.890139,18.80699 22.442897,24.84693 8.923605,5.64215 19.166704,8.97304 29.574017,10.74854 10.407315,1.7755 21.014175,2.04152 31.570965,1.90497 12.4312,-0.16079 24.93231,-0.8849 37.03226,-3.74006 12.09995,-2.85516 23.84845,-7.93766 33.27313,-16.04544 11.42286,-9.82676 18.96341,-23.84363 21.75567,-38.65073 z"
         id="path1065" /><path
         style="fill:#002b39;fill-opacity:1;stroke:none;stroke-width:3.41215;stroke-linecap:round;stroke-linejoin:round;stroke-dasharray:none;stroke-dashoffset:0;stroke-opacity:1"
         d="m 126.93412,151.87105 c 4.72571,0.21864 9.34313,1.40999 13.98599,2.31776 10.12333,1.97932 20.70265,2.6035 30.6837,0 8.805,-2.29673 17.16785,-7.34129 21.97798,-15.06564 2.42685,-3.89716 3.88443,-8.35265 4.56681,-12.89267 1.10936,-7.38081 0.18616,-15.02736 -2.42613,-22.019 -3.96906,-10.622943 -11.82756,-19.658021 -21.5498,-25.495694 -5.31434,-3.190973 -11.14869,-5.455343 -17.12577,-7.09824 -14.19059,-3.900517 -29.14038,-4.323938 -43.81329,-3.186971 -8.87119,0.687406 -17.781735,1.955983 -26.116741,5.070178 -11.36825,4.247502 -21.472586,12.007073 -28.114691,22.163885 -3.978234,6.083342 -6.72097,13.041212 -7.444604,20.273762 -0.723634,7.23254 0.637139,14.73648 4.304942,21.01187 2.639491,4.51601 6.417471,8.326 10.768973,11.22871 4.351501,2.90271 9.26736,4.91303 14.34866,6.15468 6.422047,1.56927 13.127944,1.92303 19.694631,1.15889 8.79553,-1.0235 17.41392,-4.03077 26.25934,-3.62152 z"
         id="path1067" /><path
         style="fill:none;fill-opacity:1;stroke:#00e2a2;stroke-width:6.68471;stroke-linecap:round;stroke-linejoin:round;stroke-dasharray:none;stroke-dashoffset:0;stroke-opacity:1"
         d="m 82.386743,120.39055 c 2.902226,-5.00484 8.324783,-8.45896 14.087301,-8.97349 5.762516,-0.51453 11.711246,1.92426 15.454246,6.33576 0.35953,0.42374 0.69958,0.86399 1.01872,1.31892"
         id="path1069" /><path
         style="fill:none;fill-opacity:1;stroke:#00e2a2;stroke-width:6.68471;stroke-linecap:round;stroke-linejoin:round;stroke-dasharray:none;stroke-dashoffset:0;stroke-opacity:1"
         d="m 141.49924,120.39055 c 2.90223,-5.00484 8.32478,-8.45897 14.0873,-8.97349 5.76252,-0.51453 11.71125,1.92426 15.45425,6.33576 0.35953,0.42374 0.69958,0.86399 1.01872,1.31892"
         id="path1071" /><path
         id="path1073"
         style="opacity:1;fill:#8da0a6;fill-opacity:1;stroke:none;stroke-width:1.62397;stroke-linecap:round;stroke-linejoin:round;stroke-dasharray:none;stroke-dashoffset:0;stroke-opacity:1"
         d="m 214.83219,113.41911 c -3.8937,38.98576 -41.99556,68.24978 -89.84134,68.25879 -47.531681,-0.0184 -85.879584,-29.57001 -90.158846,-68.27092 -1.291312,13.77623 0.66881,28.40822 6.78402,40.80892 4.998661,10.13653 12.890382,17.86099 22.443121,23.90092 8.923591,5.64214 17.559267,8.1219 27.966559,9.89738 10.407316,1.7755 20.824336,2.13613 31.381106,1.99959 12.4312,-0.16077 23.98673,-0.79043 36.08668,-3.6456 12.09994,-2.85515 24.51039,-7.65401 33.93506,-15.76177 11.42284,-9.82675 18.11292,-22.99234 20.90515,-37.79941 1.25156,-6.63685 1.11846,-12.67219 0.49849,-19.3879 z" /></g></g></svg>
