<?xml version="1.0" encoding="UTF-8" standalone="no"?>
<svg
   width="422"
   height="61"
   viewBox="0 0 422 61"
   fill="none"
   version="1.1"
   id="svg238"
   xmlns="http://www.w3.org/2000/svg"
   xmlns:svg="http://www.w3.org/2000/svg"><defs
   id="defs242" />

			{/* C */}
			<path
   d="M 27.036,60.2422 C 11.2853,60.2422 0,49.0381 0,30.2023 0,11.8536 10.6358,0 27.2795,0 42.3807,0 50.4997,7.71295 52.9357,21.4339 L 40.1074,21.921 c -1.299,-7.2258 -5.6832,-11.5288 -12.8279,-11.5288 -9.1743,0 -14.5328,7.7941 -14.5328,19.8101 0,12.1783 5.602,19.6477 14.4516,19.6477 7.713,0 11.9348,-4.6277 13.0717,-12.4219 l 12.9087,0.4872 C 50.8247,51.9609 42.0559,60.2422 27.036,60.2422 Z"
   fill="currentColor"
   id="path226" />

			{/* A */}
			<path
   d="M 68.2,58.9432 88.9844,1.29902 H 103.598 L 124.383,58.9432 H 111.555 L 107.333,46.6837 H 85.1685 L 80.9467,58.9432 Z M 88.6596,36.535 H 103.923 L 96.2914,14.2893 Z"
   fill="currentColor"
   id="path228" />

			{/* N */}
			<path
   d="M 139.6,58.9432 V 1.29902 h 16.481 V 21.5963 l 29.364,37.3469 h 16.481 V 1.29902 H 185.445 V 38.38 L 156.081,1.29902 H 139.6 Z"
   fill="currentColor"
   id="path230" />

			{/* A */}
			<path
   d="M 216.9,58.9432 237.684,1.29902 h 14.614 l 20.785,57.64418 h -12.828 l -4.222,-12.2595 h -22.164 l -4.222,12.2595 z M 237.36,36.535 h 15.263 l -7.632,-22.2457 z"
   fill="currentColor"
   id="path232" />

			{/* A */}
			<path
   d="M 288.1,58.9432 308.884,1.29902 h 14.614 l 20.785,57.64418 h -12.828 l -4.222,-12.2595 h -22.164 l -4.222,12.2595 z M 308.56,36.535 h 15.263 l -7.632,-22.2457 z"
   fill="currentColor"
   id="path234" />

			{/* N */}
			<path
   d="M 359.3,58.9432 V 1.29902 h 16.481 V 21.5963 l 29.364,37.3469 h 16.481 V 1.29902 H 405.145 V 38.38 L 375.781,1.29902 H 359.3 Z"
   fill="currentColor"
   id="path236" />
<rect
   style="fill:#000000;stroke:#000000;stroke-width:0.663203;stroke-linecap:round;paint-order:markers fill stroke"
   id="rect545"
   width="15.781652"
   height="57.138245"
   x="359.29999"
   y="1.5519881" />
<rect
   style="fill:#000000;stroke:#000000;stroke-width:0.663203;stroke-linecap:round;paint-order:markers fill stroke"
   id="rect1115"
   width="15.781652"
   height="57.138245"
   x="139.7359"
   y="1.5519876" />
</svg>
